<mxfile host="Electron" modified="2023-10-19T18:03:25.231Z" agent="Mozilla/5.0 (Macintosh; Intel Mac OS X 10_15_7) AppleWebKit/537.36 (KHTML, like Gecko) draw.io/22.0.3 Chrome/114.0.5735.289 Electron/25.8.4 Safari/537.36" etag="thKkYEOZb-QZe2TrJLug" version="22.0.3" type="device">
  <diagram id="rKLwDYvOaXyoH_RHYGQ5" name="Page-1">
    <mxGraphModel dx="2585" dy="1058" grid="1" gridSize="10" guides="1" tooltips="1" connect="1" arrows="1" fold="1" page="1" pageScale="1" pageWidth="850" pageHeight="1100" math="0" shadow="0">
      <root>
        <mxCell id="0" />
        <mxCell id="1" parent="0" />
        <mxCell id="d4AfCOyZjHVCkgOlb76C-3" value="" style="rounded=0;whiteSpace=wrap;html=1;" parent="1" vertex="1">
          <mxGeometry x="20" y="170" width="880" height="780" as="geometry" />
        </mxCell>
        <mxCell id="ePib69-TDhtwsvotxMbV-2" value="" style="outlineConnect=0;dashed=0;verticalLabelPosition=bottom;verticalAlign=top;align=center;html=1;shape=mxgraph.aws3.cloud_2;fillColor=#F58534;gradientColor=none;" parent="1" vertex="1">
          <mxGeometry x="20" y="170" width="75" height="75" as="geometry" />
        </mxCell>
        <mxCell id="d4AfCOyZjHVCkgOlb76C-1" value="User" style="aspect=fixed;pointerEvents=1;shadow=0;dashed=0;html=1;strokeColor=none;labelPosition=center;verticalLabelPosition=bottom;verticalAlign=top;align=center;fillColor=#00188D;shape=mxgraph.azure.user" parent="1" vertex="1">
          <mxGeometry x="-209.82" y="552" width="99.64" height="106" as="geometry" />
        </mxCell>
        <mxCell id="d4AfCOyZjHVCkgOlb76C-4" value="" style="rounded=0;whiteSpace=wrap;html=1;" parent="1" vertex="1">
          <mxGeometry x="180" y="249.5" width="690" height="680.5" as="geometry" />
        </mxCell>
        <mxCell id="ePib69-TDhtwsvotxMbV-4" value="" style="outlineConnect=0;dashed=0;verticalLabelPosition=bottom;verticalAlign=top;align=center;html=1;shape=mxgraph.aws3.virtual_private_cloud;fillColor=#F58534;gradientColor=none;" parent="1" vertex="1">
          <mxGeometry x="190" y="215.5" width="79.5" height="54" as="geometry" />
        </mxCell>
        <mxCell id="d4AfCOyZjHVCkgOlb76C-6" value="&lt;font style=&quot;font-size: 16px&quot;&gt;Availability zone&lt;/font&gt;" style="outlineConnect=0;gradientColor=none;html=1;whiteSpace=wrap;fontSize=12;fontStyle=0;shape=mxgraph.aws4.group;grIcon=mxgraph.aws4.group_availability_zone;strokeColor=#545B64;fillColor=none;verticalAlign=top;align=left;spacingLeft=30;fontColor=#545B64;dashed=1;" parent="1" vertex="1">
          <mxGeometry x="210" y="300" width="630" height="620" as="geometry" />
        </mxCell>
        <mxCell id="ePib69-TDhtwsvotxMbV-5" value="P" style="rounded=1;arcSize=10;dashed=0;fillColor=none;gradientColor=none;strokeWidth=2;" parent="1" vertex="1">
          <mxGeometry x="245" y="367.5" width="575" height="532.5" as="geometry" />
        </mxCell>
        <mxCell id="ePib69-TDhtwsvotxMbV-6" value="" style="dashed=0;html=1;shape=mxgraph.aws3.permissions;fillColor=#D9A741;gradientColor=none;dashed=0;" parent="1" vertex="1">
          <mxGeometry x="265" y="347.5" width="30" height="35" as="geometry" />
        </mxCell>
        <mxCell id="ePib69-TDhtwsvotxMbV-9" value="&lt;span style=&quot;font-size: 16px;&quot;&gt;Public Subnet&lt;/span&gt;" style="text;html=1;strokeColor=none;fillColor=none;align=center;verticalAlign=middle;whiteSpace=wrap;rounded=0;" parent="1" vertex="1">
          <mxGeometry x="520" y="382.5" width="40" height="20" as="geometry" />
        </mxCell>
        <mxCell id="d4AfCOyZjHVCkgOlb76C-8" value="" style="rounded=1;whiteSpace=wrap;html=1;" parent="1" vertex="1">
          <mxGeometry x="270" y="432" width="520" height="448" as="geometry" />
        </mxCell>
        <mxCell id="ePib69-TDhtwsvotxMbV-8" value="" style="outlineConnect=0;fontColor=#232F3E;gradientColor=#F78E04;gradientDirection=north;fillColor=#D05C17;strokeColor=#ffffff;dashed=0;verticalLabelPosition=bottom;verticalAlign=top;align=center;html=1;fontSize=12;fontStyle=0;aspect=fixed;shape=mxgraph.aws4.resourceIcon;resIcon=mxgraph.aws4.eks;" parent="1" vertex="1">
          <mxGeometry x="277" y="400" width="78" height="78" as="geometry" />
        </mxCell>
        <mxCell id="d4AfCOyZjHVCkgOlb76C-27" value="&lt;br&gt;&lt;br&gt;&lt;br&gt;&lt;br&gt;&lt;br&gt;&lt;br&gt;&lt;br&gt;&lt;br&gt;Web App Pod" style="html=1;dashed=0;whitespace=wrap;fillColor=#2875E2;strokeColor=#ffffff;points=[[0.005,0.63,0],[0.1,0.2,0],[0.9,0.2,0],[0.5,0,0],[0.995,0.63,0],[0.72,0.99,0],[0.5,1,0],[0.28,0.99,0]];shape=mxgraph.kubernetes.icon;prIcon=pod" parent="1" vertex="1">
          <mxGeometry x="530" y="562" width="90" height="86" as="geometry" />
        </mxCell>
        <mxCell id="d4AfCOyZjHVCkgOlb76C-55" value="&lt;font style=&quot;font-size: 16px&quot;&gt;Load Balancer DNS&lt;/font&gt;" style="text;html=1;strokeColor=none;fillColor=none;align=center;verticalAlign=middle;whiteSpace=wrap;rounded=0;" parent="1" vertex="1">
          <mxGeometry x="-60" y="628" width="40" height="20" as="geometry" />
        </mxCell>
        <mxCell id="db5u3t6Vqj1OG-nuEc2L-9" style="edgeStyle=orthogonalEdgeStyle;rounded=0;orthogonalLoop=1;jettySize=auto;html=1;" edge="1" parent="1" source="db5u3t6Vqj1OG-nuEc2L-1" target="db5u3t6Vqj1OG-nuEc2L-4">
          <mxGeometry relative="1" as="geometry" />
        </mxCell>
        <mxCell id="db5u3t6Vqj1OG-nuEc2L-1" value="Load Balancer" style="outlineConnect=0;dashed=0;verticalLabelPosition=bottom;verticalAlign=top;align=center;html=1;shape=mxgraph.aws3.classic_load_balancer;fillColor=#F58534;gradientColor=none;" vertex="1" parent="1">
          <mxGeometry x="60" y="569" width="69" height="72" as="geometry" />
        </mxCell>
        <mxCell id="db5u3t6Vqj1OG-nuEc2L-6" style="edgeStyle=orthogonalEdgeStyle;rounded=0;orthogonalLoop=1;jettySize=auto;html=1;" edge="1" parent="1" source="db5u3t6Vqj1OG-nuEc2L-3" target="d4AfCOyZjHVCkgOlb76C-27">
          <mxGeometry relative="1" as="geometry" />
        </mxCell>
        <mxCell id="db5u3t6Vqj1OG-nuEc2L-3" value="Web App Configmap" style="sketch=0;html=1;dashed=0;whitespace=wrap;fillColor=#2875E2;strokeColor=#ffffff;points=[[0.005,0.63,0],[0.1,0.2,0],[0.9,0.2,0],[0.5,0,0],[0.995,0.63,0],[0.72,0.99,0],[0.5,1,0],[0.28,0.99,0]];verticalLabelPosition=bottom;align=center;verticalAlign=top;shape=mxgraph.kubernetes.icon;prIcon=cm" vertex="1" parent="1">
          <mxGeometry x="530" y="720" width="90" height="86" as="geometry" />
        </mxCell>
        <mxCell id="db5u3t6Vqj1OG-nuEc2L-5" style="edgeStyle=orthogonalEdgeStyle;rounded=0;orthogonalLoop=1;jettySize=auto;html=1;" edge="1" parent="1" source="db5u3t6Vqj1OG-nuEc2L-4" target="d4AfCOyZjHVCkgOlb76C-27">
          <mxGeometry relative="1" as="geometry" />
        </mxCell>
        <mxCell id="db5u3t6Vqj1OG-nuEc2L-4" value="Web App Service" style="sketch=0;html=1;dashed=0;whitespace=wrap;fillColor=#2875E2;strokeColor=#ffffff;points=[[0.005,0.63,0],[0.1,0.2,0],[0.9,0.2,0],[0.5,0,0],[0.995,0.63,0],[0.72,0.99,0],[0.5,1,0],[0.28,0.99,0]];verticalLabelPosition=bottom;align=center;verticalAlign=top;shape=mxgraph.kubernetes.icon;prIcon=svc" vertex="1" parent="1">
          <mxGeometry x="350" y="562" width="90" height="86" as="geometry" />
        </mxCell>
        <mxCell id="db5u3t6Vqj1OG-nuEc2L-8" style="edgeStyle=orthogonalEdgeStyle;rounded=0;orthogonalLoop=1;jettySize=auto;html=1;entryX=0;entryY=0.5;entryDx=0;entryDy=0;entryPerimeter=0;" edge="1" parent="1" source="d4AfCOyZjHVCkgOlb76C-1" target="db5u3t6Vqj1OG-nuEc2L-1">
          <mxGeometry relative="1" as="geometry" />
        </mxCell>
        <mxCell id="db5u3t6Vqj1OG-nuEc2L-10" value="" style="shape=image;aspect=fixed;image=data:image/png,iVBORw0KGgoAAAANSUhEUgAAAyAAAAITCAMAAADIN4jtAAAABGdBTUEAALGPC/xhBQAAAAFzUkdCAK7OHOkAAABaUExURUdwTLTS9MR0ZAYGBv9wPv9wPwAAAAAAAAAAAAAAAAAAALTS9LTR9P9yPgAAAM7u+Ob4/v///+D1/f9gQf91P/9qPMbg9P+jdvCkj/1+WOrCt+nb14dcTf3y8N6V+l4AAAANdFJOUwD+Dv6zVSxa44i4qlP/fnOzAAAgAElEQVR42uxd2VbcOhC84RV0pBHyfvj/37z2eNPSsrttz0JSNQQGQuaBqKiu3vTffwAAAAAAAAAAAAAAAAAAAAAAAAAAAMDT8fHx8dXjs8efBcNnn/1XPz7wAwL+WWqMvPiziYko+GkB/5RqTMwo+8c2ypknYAnwr+jGp3/0uRi+HSwB/nJyDLohZEYcc4EkwF+JWTlIdSh7aO/RI0ekciAJ3Dvw17GjpHihtTbWGjO+rRg+sT16spBM6YUEP1XgL2HHZ8KOQTCsXcgw0MMaGz4b3u7fYq3WJaUj4Ajw623HRxJZ9aphJ4Ewy8Oa9Vnw5enz4duHuCvWEYRawO8Wj4Qco2hYkg/Ew/jPCSn5hIwAf4d4lOUcMRlrjOU+1u+evxAJCWQE+KXiUfrSQUdRdvNZ+g+mdwlH8PMGfm9sNWjHdOxzMpHlhqH0ZngLgy1QBPil9OjZMaZtg9DK7rDCcoKvQEdAEeCXeA8/uOpDq0A4tg6+FXyPGRNfGhQBfrF6aBtkrNLzbw9Jh5cb7jkCigC/kh6TeOQMeagXlsWO9LuGd76MgCLAO0dXPj3CcsdOIlesIwFLAoog6Qu8KQJ6ZI66JVgRMcUyeeEVEwMVgYgAbxldBeqxU+vYrp4v5z7sX9zQnIAiiLOANzYfY3BFqodZmxAZWSsb/aHdiKVUBHEW8KbykVhzkgJUZleSvyKFKcj6QkSAt5QPUVVjSzeEPmRqbNQQEeCN5WPqvrW7JQ//178ge2V3qov9W7lMjEBEgHfAkttdzQczO3u4QkjXTabJxDXOgogAbyQfeqM5N1cNtOR5346y7HYjsFlFBOks4OXw5MOynbfUlwid/EIRhFnAm7hzLZmB2iqO2EP/OhnU1QizgHcIr8q1Mki3j8xGfCO+Skrs0ZQ617N7nb6+E4GIAC+2H9o7z5b4fW5u/cNjy54HCb7HhNtObDpgaG302uN7DYYAb5G90tu9uOY2ImldDG1DjLi9hD1GtVBnDbPwnwU8nx9+aXBrnPw2gyqn99BW0xj+ylKtWNxdD0s6C0YEeGV4Zbb6pG63lCGTYmSpERMl04xld8av7Bxmlcj3Ai/ih0lOqQnDp5AgczilhVi9h+Wnfw2MCPBaftBbGIKHR5BZOvQxMNq7El1Zs1lgCPBsfpT0QpIg4rn5BDGHybGShNuqYqOiIRgCPAufYWtivv5hQg9i9BXgt6VMggWGAK/gh84ez0BEruaHryPW2B0/EiSzsKMUeKp+7FcovDJI79G1vpAiVOLMzDeN+IUWryKCggjwNP0w2x3oq002D+BH5EZ2HxoaAryIHxkTcDN+q0kPfT3s/hUKS1oLGgI8kR+5UzmpiFcXtPqRsMTGIDqzpuHUgefxYy4H0v24Xt1DPxob04pRSg0MAR6Nr5UfuYmMx6StmBTZHByBhgCPxceX136VzWHdnk2Q0Yvkg6w1owaGAM/QD3pEKextfypBNLXQlCjPQEOAx/NDk2vZ08arxySudsrrO+MjM0OQ7AWuD7D86cFM92zID6ufyhDrL9rKjCpqzIcAD+LHZzoeFf2+Dulh9JORu9IwmNDV03wIGAI8hB/UmvXp4wvlg2w/IR3J3JeFgiHwAANShnvgcnMfL6FHks7KrO8tYdSBB/LDhJODRHK3j65exI8lzNq8UAGpLOBBBt3mdl/Z17qPzRbGdHi9hFEHrsVnOc2fm7iDw0bF89eFV0GYtSUkczkENgS4ih9/Fn6sxMjEV8fkoyy7rm3b+o7+SdeV14dZy11UGkEW8AADQl0RFeuHnB9l1/OiaZwqCqVU0X/onxSuaeq6685nsyyxad7CqAPXG5BMJ6A5E1715Ghczw3l1Ig7O+4YnruqbsszFREbrC1dtwGhXghcHGBlrvgI9UPIjrpyPQmU66GGt5kiPpQ7whH6ClHvARsCXKQfX2EHVsQRczS86trGDcdfjcSYFMSlDCkGIRFbkp1rqSxsCHBlgFXSV57Zo/zoatfHUM6p+LGKSEiUpu3kGmI2Fq4g1wtcwo85wDJ73YkC+9E2g+vo6TGJx50ZzvskFZFv1dTdMQ3JrCaamrLwXwycz2DpaAeVTf0HXz+6IWXlprhqpcX0Nr0rUhXpKVKejrJWbiPIAi4LsAxtdo/oR1cvOuFWZkRaolZueE971RH59XBeJcn3IsgCLstgET3uh/hR3r1HTA//bfzjJl4kwVbTinzIxgU7yGQBVwVYZGHaNyCWbz4UxQ8v3lqYEkRX3tOqPKQhBE8QZAFXCEhJj7DK+dHLx1LvWCMrp8IU1vL3lIBIRWS53o28ArGEhABnDMhXksFag3l5fNU1vvtYqx8zV3xhcX7JcKXK9F5g1iN22OASQwsJAU47dL03X8vkR3u3Fh4X/PyVi9JZa7JXUWFW0x3oy1qMVLxuET4dOOPQyVqCNL9b1spzHLH7cGFmaymsF3HNcH7mOnmyl7p8ekzSQUKAcw49yQKJ+VEVKkxVOf8dZUiCrpPUjLQnyyHWL4ZAQoDTDj2wucL+xK4pwnJ5WANRhKgsfVkxS2ZZqQUMyU9QwacDpwSEvlxWzA+v6yp6i+IqF7KnoHEnTi1JZWU2CSPVC5wUEKpnXMwPP3UVZKpc4MsDEQlcyJLL8ilTs406meT1l5xAQoBjAmI2KyCGm94NWeAU0W7iR1wrUv+h1mirPmtD7JLq/YANAY46EEvdjiPgRxHVN9Q6++EixhAo8lBihhAyoiEhwFEBIe8hlAVYZVW4qALoXNM0zsvmpuTx+ZHkspQ8l7WxTxjVQuCogGgyNBFVCIf8rtdaMrSaNNUdTaNYyKR6lYgh0c3Q/mYgCwkBDgqI9k5T2sPLqqDXRVAH7D9WKzzRcPsEWXrf/S9xK4aZXaTr6BRqIYDYgWzOELIMSOuickdT+XDHJWQOt5pS0LZIXqsICQHOpbDoAItl0JO+koAf1ehEuARZ0rzKz/xWkr3W8QYglNOBEwKSXtkkE5DynsDyCoIuFJCeIQIJUUlzr8yGjFNSREF9qoXApgNMfHgOJNr+LAqwaueimfMqIci+htCDU94XO1mQlaxyQFMvIOPH174DsbwAK2osSQhSSWIsRXf2cm1ILtMLCQGkEVY5XSYV536EAdY8ALLkeJuEIFv5K0apcGRIK5EQYgMQioWA2KKXyY44X0BYAVY8Zp5aEFEeK08UZq43ubZhpQtsOnA0x+utNJEFWHMLr9dRkoZYSpTHUlRbL7/lxO4syfoCQwC+Rd9wIDwBCchx5wdh0kWVEJIeA7ozTYvzaCHWLAL8CMvEbYrCGnqXTEFRCtI4joJsNiyOm07Es1NRDyZsOiCKsDRxj5ksxVv407UTW4omSWKd4IfnTVwriLFsOmMImw7IIiyiiC4TkMLfdrWsMolserPRxiuLsSotD7JWc7WOheD/H9jhx1oEiVpgRQJyX9IQH/3hppwm4ceZEEsJU72Wvk7HoBQCsCOscrbomU3VAgcSEiDuNhlvllLuAg/Cni7MJrIQYwEsAflIiyBRhMXsck+P/kiQiSJNo9j82C8VshtOsndOTRKCGAvg5LDCRt6gC4s1JjXWQOLjPzNkuMXWOae4/NiJsUQD6tkLQxBjARwF8XJYwTYQkYC0mRUMy/KfeIXiqTSWsCPLGupCUsRYwIEcVjpIaJkWnWKIIx8nS4XqUEdW5NTtvEMOLb0AI8I66UA6lx2jdaGK8Oixa0KUxKZvL1lEjAVs5rDWG3MCDyIbtC38OwfDTT/hatHTHsSLs5wgxiLmQuZ+LJwBYI8g0VWdUos+b2ogLMiiHZL4ipHGksRY2V296McCpDmseZ/JwUl0RVIkvDznshBL2tNr6TwWTAiwQxDiTkKRgLRuI3aSG/Rdgsx/K11wEpVCkOgFBBbEkOvcWQew3uGHyjiUkwoi2ZFFD98i0QvsJHl9C0Lct8a7LacqNsTBKaqEeIYgSrzfJG7Fsv59UyAIsGtBcvflsAhSut0S4AMURAl2WZvMkkWYECAnHeP6/695ltDSbSaaXQVxW+wQygfXg3DHpvR2w+LX/NMAgEk47pHV59dkQZIrpWT35bTFAQbsEYRDEfYaUjqPtXT0zj8NAFgDq/Vo5C2IZVoQdTU/GB5ECVbI6XTy1q4ufQYYAoT8mBDdl+wta+ARpC4u58eOgijxdSGZGOsPGALQqd0V5ckkb9kUl/Njv5I+UohLkHArlo2W9C6CirMB9IgERCcrq4VXojfu2QoiHSvUuZvTdfijwNkASIJE4+gygnQP4AerF0t4d3rsQIbBdBAE2CWId/VSNAqitaAT66kKIs3zZucKQRCARxAqy8s7e+31+sEbSh/yvCIFSSvqBgQBdghSZm+1NUyCTAO1y6Yf78PbKIjN3BRSgiDADkFONmL1BPHu5fSv81AnyiMUG777R7S9gVspDCshyQZSEATYIEic/ZRVQXRbTCZkOMEh7ttMTitI/LIeT9gKoo0x+bFbEATIEiS5ZkZMkFE6vjMojvDDefTIvKxk6nYcvKV8iAVBgD2CmGDnh9SjDwqSZceIwwryvfXCkpGpbL+iBkGAbYKsv1HnrbUyC9ITZIcfByjiNrTD54hAQQwjz4uzAVAEOVNH113zzYHUrxesV206LamEJG3LNjQhOBtATJAyOTQiBSnrbyaKB/Dj+9u1B/K8/u4fKAjAIcjBnbxM+RDHWQX/VSvhremW2mwCggBZgsSbawUevU1kommqeoRqDjPEUQL03QwgmNO0slq6SfePgiBAliCJb+UrSBReNVXb/SzDiLeftq5UbKo59FAJBeq6637u6Nq2SpjXsmOstLMfBAE4BLHpxVJC+1G1HjlmdHUjF5EohKq76EV/klet5XleS+V5cTaAmCB6vbpPVgYpK18aklO8oK2EGhI5DM6rchhit24JAUEAZohlmAQJ+FFl6XE/zI1AQ4pv5ut2lYwh1sQreu262AQEAbIKEoUezCxv7bvk2zZ+ai5BAv/RdNsvGxCvZqax4ss8QRBgL8Q6cDl66eWvqp/bLvyzXDDjq//Zu7LFxlEgOI4fE1kYCxmB9P+/uboFCJqW7MT7UDUzyWSdsNkNpeq7dfbc7nnAU48smZPwQYAsQYLkGc8Hsc49vnPgJkxY/FCGc6x2LDLLdkLcrKgEQQCKIKfmutfbdWfd4+Fpz2CIU/SYM69WaXIssjo7+keGhSbwQYDf8EH0YX549lAylOXwo2Me6xhv+lhbuhyNLhAE4PsgzIZbc9C+mhlS5CRkY5DlH2uYbsi+H33fEIK7AcQUxCs1YShIc4Yfnh9CG1jKHDl2Y0hzcLAJwrwAxwcRB30QcyR+Fb/KdAWWOXasZkuICJ0QhHkBdhSL64NsHrq9389eZUpAjvJu8/9JPz2yLT3smMLdABIKcsAHMecMLP8qEx5Ic5h3VnEkJFaJhTwIkHfSDyrIcsmbFAustSJlZKkUQ7YcetLA6s+1GWWiJETEyhVhYgH5KJZneOQUxJIXWZj2ertdr23imqclZL3jcQPLtv3B/bnR/PqmTDY74D26ZAoEARgKIjnVvJryFGw7sGNEK0kJ2eVCaAFpryPv+jdR6mlGLiSo64eTDnAIUrtLLRlzFVcXPXZPbX+BF4Lc2qg99IxLSEUKiGyHA8dTexhCQogxJ1EXBAQBcgrij6vN+SCWuMi9flxX9M96QYV6EwKiE/oxnTkxxBISYshSk30uHf0gAK0goY+eMbE0cZFH++q2Petjn2MTc4AWyysmIGalx8w84lh9qFYRCgJkTazwwcojSMTOKR35GH7droKysapYDOsZFZCboyADQ4xI2ljNMR8EQxuAPEH8vX0kQeoiaWEJ7Vzi6a+kPx11QWJfUc/++Wq7xSRkOVbVvMFYyxsQBDhiYuUUxBJJkHa9w8ujvqWyelXMBbFJC8u13iIRMpNzQmQ8zguCACRBLsHevsxwd5N2QUR7W4yrhSctlbOItaLHXH+pHdd/pohN884c80EwWRGgCRIOdRYsgpi4j35zfJAEQe5RglDZeT2ce1sPHd6K9LGaUhCBwXHAcQXxxmKtDJGUj25TCrLe41uKIHofxloLFWNxL2lcF2R61x0nSOCBSEx3B1gEKecs4ea3UokQTXQ0jU/6jR09LmThVLUPYkWzIPbmyVKCeGuGv2aNHsV+EOAIQRyzg0ylP4l8d+3QY7rKliKIV2xC1ne1m2czvdPEsc2xDTogCHCIIIKeXq2pisL26kZjExZWVEEUWYhlbjc3U3htS4ogNbuhUGKJJ5AlSL1bjUwQZJ2nGCVI6WQJ4wlvNyDrKghNELEybzrY3I8riBSR/TkwsQAGQY6MdycVZKkJmVHf36Qg97J1/XQjzhBEyv2OKSgIkCXIZbd4iSBIremxI7bd9MNm+m5jPkiqSXHQkMXAivNjPVYzXRC5d0FAECBOkEQm5FiYd7zIQk+Vt60Rdz5BqiLbxWvmc9vUuU86irUPYO23QIMgQIQguyq+O0EQkxvMI0RpjJX3JD/Wm6wiJtaT6DyX1pgyfWwmDyKEn+2Z/1tBECBHkLlckRfGMpzJPIKgR6LUJNPnPh/LmQehUwKyLEFxnwc1CALkCZLaECLTxYrP+1l0D4og3dljLV2sKCMz48J2KRAEiBFkV41F5dKXjtvmNEHiLYXq7Kit3bE264I4zwIQBMgTRAq/55ZyQnJhLP7wOC+IRRZjHTo2kSeMLc/ZuSAgCBAjSBnEecnxo/rFmxx3QeiOwiPHas6W9OhIExAESBAk9EF+0wmx8aEN6vGajZVzQUR+gycIAkz4vqSKTQ44IWdv8vPMVJMDx9qa3wwSEuQbdwP49+/ra7sSPyNZZJA9IzMh+iUJ6RJLdKrX4lhdZgOC8ArOZDxNePnC5QAG/Kz8+Pp2U4XLvFqy5N2+ZAzp7OhR89Kxpib70WNjR1dB/cHNAGYR+R7x8+/rx51sso10vjNsrDPGkE0Pr368ICGdWifD5/rR98tzfn6m/xnQDyAhJrVMLQmhkulnJOSZGBvnTnfXLwgIr1Jxcdnr1bD66g1PXAYg5bEHKTSmhDy709m89+4HMblV0G5DsTMWC545kDe26siSEHoJwukNOs7+nP2e201CnqeP1TVnZpzvgsC0AvI21r5MiWorbE4t23QMrAe95FafPdaW3DT6lgWBaw6QEuLP/pFhW+Gd2qFzzBpyNhTGFqVvEnIskqVzi9IlNTPuGwIC5J2QUqSW3VKjG46FnDZPQVXxPelriKs5wJBtq1tqXENkr5TcXBAQBDhoY03NIVRnen0iKLvx45Hgh2Nk8aXJOdbQA3/C3VKwsACOifXlLbvd993eyUWF7Ku8GUJxAyswsrjujcMPndmP7q9ilE6QFwBycSzv+ervKiRn9DLNoc7hh0oKiGNkPZQ+eGyT3nsQ65Za0ui4AECGIE4yXcb6CqMTFmvtXOWsmWUbhx8FgWr7PEaaxT4dfrDXP3uVvLCwAGYca2IFdz7WNkJuuMo285wvHgwHxO+cymtTZ9zPtXVu5Ki/HwQWFsC2sdaCRbevMCMhroaQFOmMIx85friO+nAsQRHv2MaU+d2EsUJF/PgBbhwrLFjc3HRZ5jRkoEiXoIfy+JEliMeQniKJY71/OcWPMP0xPwRgYQHHbKxS7OqVcivTXQ15qEYHHOk6oz12kP75amRV3pc8Gh1ypGdH43+KLbMCEi5gg4AAbHzvpryzJMSNZc03tb/N1tqu/2P6W1wELxc8VCpyrFmO1U0TvPyk+CFiAxWXQl7UYQFsG+siw8nndL3JlA8JL+t4n1XTqMg/VwWXIUXki1XqWF2XtIDINfm5BbHhogNHJUTui16zEhKYWRQUw/1IOCIUCPeDKMNaXHQwBOA4IT/b7AZ3Y7rIS0hZWx5FiiP0YFNEkfLheyARCws/euCYmx5suMx7IW71O0WPE1AM+bAlzQ+3uMz5oESdInDcxqp3yQKOhJSlVkWOHtUJglRZiihdcgniR7IgIMAZCZEEQwRBkMG7SF7m4pjzwVaR4eUMQWSsj3Ab94M2dOCghEQYwjCytJof+OF1VkPg6gV6DF9cKRVl3SBKlWbyQ8bKsJAEAQ5HevfD1RhGlhkv6/C7v849TdQQlFVqJM0r7FgsrfHQgW7jn0Kt5ypTZkNYMrl3DfoBHPdCCAlJGllG+c/8GcUb2OEcOmrR8H5lXaW4IV4hl99bpxQEBDglIallIWmGmCrRY/4+hiRAE0TEQ7wScxSBlwJZTlkGK5JlfpsHySiX5eXQUccLfFJC7O9LRYIiFEGESMSwICDAewNZuUiW/ZSCFJbhgYSxXnggwEsSEtGQO80QW32GIZSCTMWWkbVSCGEBb/BCnBrYoQ+XNrLq5kMK0tSZRnSZakWHgABnJSQM9cpsMqQnyGckhDOoIbC0SggI8KoXQrghcTf9f6cgiT70xUOv4aEDZ/B1iU4AciREJgjy/1KQ3aqDYC/6N6qwgBeMrP0yhGUpW6Ie66k+oiDqSRbxit3OtTVHCH4A5yQkUfY+ZQzvUqQIUn1CQ1IEEfvvPRAQ/KSB1/z0fQxovmaJct4P0KOqEu0gYdPXFuUtkSME3uGnX0Tay03Uu3/CCYkTRKa++SWHjhAv8B4/fV+rIeNGlv4APwajTmf54QV5kQIB3umnR6b1JjREVx/wQaq4guyrr5a/rQYWXBDgVT/9sht0sD2Mow0hFeNCv11BDN2EHphaMLCANxpZUTt+zkanWgrppIV+M0miBInWJzo1JsihA68SZDaykm76niEmf/Wrqum0Yl/95nlGQVL1Vw4/EMEC3mRklbG9lyKqIVZxFKS7a2aToXp2+chxtS/mlbERP16EFwYW8D4jKxkuDR11m/XRq6H9797xeg+rZycaxXDSLW+KyfAtI0UIvDuSlXBD5g1/xwgypPXMuPUmqyGq0fd792jyXArmKjoRt10vCAws4J34jjJEupUb/ox3Rt671dNaQZUJdY1rc+vspp1hwonNryJ055iAH8B7GVKKmNUyf+CtTWdISNFOJcG6IdwLVU0bQU1b5dsUvWp3sUugy2AULwws4M1G1iWVCxGBldUwHIaitctu2iKhIqpYdh22+V2GXjtIvL3WH9MAfgC/wJC56TaypGkTkaGlMHuh1VUvXSUmamepat3Z2bUtYypjk2iQkkEo6wIDC/hFR136WXVnE67ktxT2TnrbOitqn0UgI6rZVtoKc2WYbFVDbwFBBgT4zVjv91K2KKTI1fZqxQj0tje99bbfrX4Odtf0q+rFw10k3V7zc32r4pltsBXrOltkQIBfY0j69i0a8mQkx4vHrfW31VqjnwN0uB7XXK+MINbcLxUfzhD0SIEfwPsZcvFqTqTnAUtPRMaGkCpnY91ChqTQ3tp8XGzpl9pzQ0b4gS504Lcc9fQQz9URYRWGVNfr1TLoIfTtxkmDjASRIi5t8zc6B3hRogj8ZihLSsrKklPHVD6X3vYM6fIE6Q2skSA5F6TQpZRBWFfG5lTDQQf+QkPSiTjJaAgZnJD+5rdZDSl7GmVdkFFBjJSEtCHAC/ylhjihUxmOuxWGsYewGgjSM0TS/LADPxhZkP5lk7avoB/An/jpc83JpaRiWUIYTtpicEJut4yGmOvIIk5DYWXClIf/N+gH8Af4DjQk2mZoOYOxhjjWwJCrmw7x0Q1uSo9HwbCxCiuoDqlVP+CgA3/AkDI642QuRTEVS0JGG+uaFBFhJn6MQV5OOwiVIFz0AxVYwB8xxA8XzeUn04e2YilI1fb6MdlZZq8eur2NL/cEYQ2iq6xIz+9a9AMJQuCvGFLLRM2iEJyGkOHNY2BAryEDCVrjhHxr3Q68uU0WFqd3vaebFZHcpXRH/MD/AP5cQ2JNuGXFnPtzXTByoW1brXX/dlGW6bWWt2C9sXOd8a7Wfcmf9/4HDCzgLzVE7pJy41vL2xDSu+n/sXcGXG2sTBhOCcSYfuz1nB2stv7/3/ktsMsyA4kkal3S97Xa3lyzGz08eWeYASId4U/8e1i+LOSEFL3lWhMgZxL0Z+Tn0N/V/xIhRet7eOC1zUJotZBoIwMHZJgNpMVB3OvTmR4Y8AH9bc2bZaXJLLlC6Vfb/u7LRFbMQ2YmBsZMs4HQa23bx3RKJ/iAvpMQ8dF6xtQykZXxMH8dFlQaMxByv9b0PJvO+u8H8nPoG6OsuMhQukjrGVNkXTKQgeGxBF1vllpOlfYLCp/kBsLr9NXzT/AB/W0T+SkIyRhpPkJnCrLyfCMPteKf0bVtv0j219P59BzlQejvA7IQIleITH9+tRqI3/4ncVHmIcNIzVtcv5Sd9z/AB7QBD8lrhjHMebFtJ4REQoZhn030rpAMMQFpI8S9PAkne0b6AW0kEfmxVETmbqy2EIvip3vjDpLKIkPjDG+cxXp5YnHef+AD2gAhP5/X2ayndcXUNQ7inPeQPAeZU/a3sMt165V+sw21nxFeQdsKs9IxbX5BiCNqz0ImD8lTjyUBGeMEVuuFfqfZXWYf4APaSJiV9Wb9piscxH+Mcz1kSLO8bwmPxiT9dzl5hfAK2pqJzO28ZK9wEL+g3L297bNM5G1coqvW69CflKEjvII2BchqIs/XArJ6iHPj27yAcKIjWUejg1BcDgL7gDaaq2eIhBVTzXjMn4ERH1XFwIoSOG2kJUBSawnsA9pkJvLsU5E/r63BES0TuRENmv9OXDTnIL7bPUvOYR/QtuIslZvIn9fmI57JymIHt5W2PpOwHCTDA/YBbTcTmVykHZCFgvVjtY32JN2fDpLhAfuAtsjIisirawYkd4r884oZXj/j9frjB2ofUC/J+ms7H2I2i0p0mlqxXtfoCnxAW0fk1bmr6KBkGjeKXhFdQf0g8hKPiroakmuyjvy0T+degAfUyXzWhIhfUngVIWtebm/gYwLkF/CA+snWdTxw8DoTuc0/XLSQF+AB9UOInsftlWNCS7YAABZQSURBVITcElx5+5j+pZGaQ/0AMr4uBvLFhMwO4uxo8GuHeuHDuNVA3Ncx4oJ5xBs4jd871AsgLgzdlIV8DSMuXTt8jKh/QJ3IjKOl1T9mN/kCOuxK4TjCQqBeUvTRb9fjsvH7ycmIS/HVEsjROI5wEKiPDGQarH4z0CwIsu7z4qw8r1nQo8lBYCFQNwYyUjxWMEtEPilhz9Ka5SPUTkZvIfAQqA8DGefRTJl9fEYy4qwM3dxchR9hIVAfgIwLIBQy9Wwey33MRRxzpPiPtIAk3NXAQqAeAqxxdEvviJtcJAPjZkayXD8Wz1PeTynEGlEthLauyMeYn3BgZZB1bW2klse44E5r81a8rUYaAnXgH+O4brpAGRPWXW0k8vtT91WY5KV0fs58Xw0PgTacny/jdHRsF4Y4sIklEc5mlb53q4EZX/P8MdvTgexyY5gItFE4jF5HaXaw4LLGPEcjSySygjj7J/vmSogm1o649daj1kjWoa3BoUcm7iDzWJaElLl35i7skTVGi1NXckegzEFWSEAJtEk4JCA5IXFulplEDQ9OilvZiA+Vq6pc+RI8JLAS6BvZUFU2oqhcLjgvM5QcFBGVK2rlmanMW5MWh9yeex2gBPouNs4OSukgcesqPVf1OB+unOKa6SAZcMWZ3elCus1B1oQIlEB/WT6wOm8f0xt3ueB8Gtc8YS+jKjc36ZaO4rLMQ5cOYvUlQHQABIRAf9tGVMhAtC2HpKk4iKZ1n1GbspGsspH3WpHj2XpKy+sOYszoKsYRwAAZ0LchsgRcAZQ17N+Zsw6SFRDPmkiihpyz7LAQ/0R2oQWQydMcA2O2DOABfT8n4VNFRwnRvlJipmka0vkbP9m8T8TJCd2Ybrh1I+vVd6oOQjYU0M10e4VYCtpwzJVyFDkVS2TYG38a79WjnuOJIel/5TUPqjgIWZXDCkGbZ+U9QNi27iQOBklcVHZbnAApExwLLqC+AbElIJVjpopNSCvm4gEpHQSEQF0FW7rmIFccXEi2vg8pVRxkegh8QJ2HWNY7CH18z4aqg6CFF+oMEF3MYil9Gx8VuyjTEvAB9aUyI1eVyadbECkBsQAE6g+QdxyEfMtIEx2aRA5ScRD8wqHOHURLB7kNEJ/tK1tcHL9wqHMH0cVDtzuIhoNAncuUb/Kf5SDllQjN7FD3DqIEM2QaATHvehFhLxOobweZ3/eJD/xGQERyb5SsqMBBoM6kTC0HIXs1IFQ6iKmEWPiNQ705SDGszS2ATKmKYZNWHjVTOAh+4VBngFi6/L4fBn6jg8gQS8ZvFoBAfQNiKw6ibnSQCiBoxYJ6S0IKB+HDulIQP+cgSr/rIOAD6hwQeyhDrKbuRdIHOAh0/w6idp/nIAV94APq3UFULcRqchBR9qgAgmZeqDtAxNt+DZCGJYZUtAH7+TAl5rUACNQhICTe5CUgO0cthIgKYwixyotDUF8SDqJ30kFMi4OUrVfBQYqLQ1B3gJBYsVEA0uggyogcpHZxCOrfQcqew1ZAROOVJr5pI37d0J05iC17DtsA8fvwyqwEgEDdybAh7N/2b3WQkqyKp0BQb4CIjEM8YtWusZIu+7pMaUaYxYI6U5FxSE+xqjkHYWUPig6C5SDQHTmILUOsdkB2rOQeGq/Ki0NQvzlIfJM/SGNorYNwB6mFWPh1Q33nIL6d0Mjqd2sOonThIBwZNPNC/SUh2RimCAh7pA0QoggIW2G4q3gKBPULSHQQxTxF73bNOYhwkNrFIagvPpT0C+kgxd5ZZwHZSQdRwlMACNS5g2glg67oIA0xluGxWHQQ9ghOB4E6BERfcBCisuXwooOUgMBBoN4BId4tdciHuTSGi4Dk7bxxzoo7CH7bUO8OspMhlmnNQUTrVfSL4uIQ1JmYg5hi6sm05SBFHzAcBLoXQLhf5PNacS6qOIzTH4lQ1EFMAciOFR3hIFCvDkJnHST4QOEglf16iz7g6CAsKwEgUIc5CBvVRlZGrKrMYlX26w2FQu49il8czbxQl8rHcGgGyZtyKz25yx5YZZLOvUfPDoIcBOrcQWwBCPeB4qDP8vCoOItVPJPXVOAgUO8OoqSDaFU5x7DYAn7OQVhNJWyCdRDxGwT1B4iofmfhUyitF7NY3mhM1UHyZzq1E0EXAIE6d5CQN3AH2VXPUt+VZ6BzB6F0LSwHge7EQebNc1kmoXfVgz6Vqp1gW3EQDQeB+k7SNYnNc3kmsduVRw1WbcUoXlOJG/Fq1EGgu+Ejvscrxx2kOAcnmIWpnYGecCBKgOSLDhFjQX3hYRzJViyeSZhKiGUrD9rlO4mfdcAKIaSxMxbUDx1K+7f1Im1gmYSpOIiV81OV70x2kb6NwiEiWiMTgfowD47HmkWzHCT4gi1TEHmwiJVeswDC+nnDDScbgY9Am5aZ6ZCnS0lAaiEWJUCKEEsVM2JiondlBD4Cbdc6ZjrK8l8BiFVlJX02GpmERJTK89bybhP/z/nOGvkItMG04wwd84KOCiAVB4lzXUbkIIed35SRitUfteUkCyRgBNqkdVDlFOc0WLMiec1BUiTGT+iUU1sx44/3TRckjkhM2gEJtAE4TIKjJpuVKLK6YMVBFmvgtfQpeOJTW5Tto7hMl529twEk0Hdbx1lp+S5etOQaslQ5aVCXp+PwZiz5Ei69CExtQd+YeBjlP5T/9H8J8W9nS3C1SLOzZR3y8I/DTjRj5b1XwV4O8sYmfTUHmAj0bYTEAbpTy3+yDz4wlaZilaypb0Et9oU34rFKa4nit46PLF8BCNRDMJZn8Etp3Vb3RzTlztTiW9FaAt1ZqsJmuKhW8VhtQWTp5ff6azkwAt0DGyGPFzPAab7K1ne30pWzDfIsJNXNMU0F3QUbVD/WnDvImnrzbbDKOnzsT1wr56AE6osNH1RlcHA81tKIkQdHLWjVANmFokdqLMkK595KMJsL9cJGVlePw3etdMfqXRZKUfWYKFMtj0yPp1SGFkrysqC3ElACdcNGpbad41E5g6qSpfPTPwzzpVrxHJRAG046JkJ8dMVltfNVdS160fnCj7w+zs+P4kvOA4Wheq7jRXOF24MQaKMOIotyl+rqkg9WHmdbalWWnF+s2CuUBqGOsDnzOK8cThywJ/FSIVWX0wID6H7NJuQqZwxkJ86eEk3BEHTnMgsedO6gWhl/BUTACPQP6DBP1pI4b0ok/HJvEzRgQf9AaGUiHTRvtFAUAzOXKXZ5j0WUAyCB7jTvSFUSvkyWanyocsX5XOrAWlroPq3Dvr9qXUZZdUSw4By6L+fIl62XeOjGmeDQxZv1X6FHEboD58ibT2yZVtiLO4ZWNmmUnbyABOo+51jZILl/1eGdq5i1+ypv47Ws+woTwFB3YhueUPqY9xpxOi7jUE2g+e4rp9mVshqKb8vChqPQnfnLl347BEEQBEEQBEEQBEEQBEEQBEEQBEEQBEEQBEEQBEEQBEEQBEEQBEEQBEEQBEEQ9BVSB3WYpL7u+ofDw8PhcNVTHiY9Pj7456kvelHhDvEWGARQfRg+nk7H497ruD+eTo8Pnzsc/Q2Ox2EY9vthOD62DMTDITzFP2HW/nT61Jflf+zph47X3g/+Zz/6nxwDAmJj9xTIGNaBGMbL8fRJQ0X5G4SrJh0fG14Uf0p66ie9LBXuIG8xYTLd4RGMQPNAfDwN9YEY37I/PBjDONyXNzhdpmO4pImRj/pIeFWXbgFGoDBM9sPwzmA8fIi/47kLP97wnATu/kMDeIJ2v3/3Dicg8s/jMbyHR3yzf7gdjwsDsX7Vw+nY8pqG2xFRD213mH5wIPJv49Gq/U0jRb3jBKfb3CMzt5sCrYcr7gBE/t3c4//tXduSKycMPIWquD3M/39uZmzHVyQQaHa90J1K8rBre/CqaUlIIpPCToiS0xtizY35TEipjPegiDqn5bPqA3adwuDTBbF7GbQpbVHnZ/lE1U9IY8Z7fQ938ropQkQWlA+9JW4qEfEtUpA/JKfjsTT227fuGCAii0UfXZZIikgktUU2r6+hnqfSSJuPfZ+wwc1aix+dltjubaTGCPjZ+cm9T7VL28nrRqy+FNLWjyaGuKw3bJcHnmprYkiisxcOrM6P3ai9GT+e38vFoadq8YESjRAEofoq6asxfjQwpD0Qzs5GP2qFK+P6AYZAP6ycDYWtBzt+VOOQsJ29cAD8uG2lojvTbOuPHJYzeKoKQwz48ax4wLT5KxNDMfFksiVrD4YEKb+7nb1wYAIY2YmwWbfv1I+w2oa1UpBg4MJJ5ZXALAF6NLITNlBvZWDMjxqq7tO79g0+bVZAGLJyAEIxp3Q0Z197YyUDd30ByNHKe2n9fn5NhR9H9+8Fqdq7krpk7Vj2/RM6Fw7M4GDJf/pbK/bVAnylkyrpLZFyusqGaw+L3rprXaXTsKxssnBen+qhZ10LB2Z3sAotrE4yxqIpepLiFq99qlJHlHNiw0jWCWe5usxLNfcEJ2taB4u0HYNS511WWSLf/Mc/FdeIsVNEFUV7fYWVduHA1BksIT8qnFB4hYDwpX49rxHaqkpnNJmvYhe+rcSKDjJZi0XocqEqa4u53RKT/qkqB+M8cUOzgFSO/djSX0jInAJCnVEnqzy+8RNixwFevcUjtaaZcm+03bxwYOYIpJ6V4YoPc5slihVMqb/qKbRJiO/PRnEHNJCQdVJYTa1G5a30/eCa2XDFrA/zVE0tgi408TYNtFhxGTZIyHwII1l9xvZDg0SROHUkDBV0pAbzdTRymuGHXg38IeSGnnDlZk3x5Zdih63nkQZazqlLVQpS83n44MuBvxOi01CDQ7Ec5MV78oy/49TK1F5UXg4SYpVDisaOBB9rXQ9LkdEve+OhZkkVSwyj1ld9gzIFFS7S8BsAf9fDyqMMy88MIr0hFXVJNWEnV8y3WOil8pCKC4+wqMlyWGMO1lECFUuHyq7yCRVLjKO1Ts5XeJuGmzrc8EMCfyAEGfcTikkqL2+06fSnKnZCPfG2pGvKEDugcWp+pPFIs+iMB/ETahIVDOJf+T2KD60MICzeA/j2EITGz4Oz6MzkjhgnGXj3RdfuXrrvLdyjvI1/ecB3Ixp4CUGyk2KIEvTuEam35izt76F6etO5cJyEzBWjR4Ncvpfc+eIP/Q/QVuZtsvCOSmdIiNKnj9H1TkIU3BXfsVWXnHv9zuyl/T2bxNcZR4WTo3QaoB/oXwpkfMs+rpEkvTqSkiDehCBIY01FEJO/cCHRew8zQkc44fuLwyrCdnfuosn80DRUhACsQhDpXXpsyNukTzPv+ZWO9+NvfX3A98boycTTsCZI+AGCGCSxzB4U+Fpkk2IJLxGE9JtsMTLqWBxpCNJzghE2ixAOmJwgzp+vIHS6gvScYEBBFiTIZqQgrl9BrGIQnYLAxQJa0jC/H4M4m9MZUR5Py2IhSEcWq+1djBVET5DSOcidIDbBVyYQZDmC6L19l6zTvFGsVG91/LQEwUk6cM5enY0V5J9FhVhR1+4EsanFiuiYmp0gZDCZw0VjBZELcUdoew/Sg8XOgGre6WFTzbtZK0gyMF+5I9aiJcvkMYHvhsFe7cT27h4Fcad1FD6KjGk8+nKELO/0SONeAjP4Z0RBDHrSmdFzd5ad1pMOF2v2NJY2Uxk2awUpc053TuFJJkjahvNYEZPj1kxjKXfS8pjPIQWpTrXqfaoHQcanWgUafQfgD2B4PmBlzHSfgoTBuaDcBaAkjjUhjXY6TFZcNgjRmKJjLv8YUxA/eP0Gdz3B0ylFVl/J0PDF4Rx9NjjGFN2YnQwqCOu3DSXWXgkQxjhYfjlOQeZjSBy66IK9y3xMQTjHzbsB630liB9aOHPHFDysRXyswQt0xhXE1WKILn68vD4P3NHjMuH2g1XyWNTPkH0fPUlBhu4opCaC+K2bIVzgleFhTQjmj00tl3jypjioIPzNuFWGhNhGEPaW2/o5Ztw2hOjrSAhnTbk2Ypr1rwwU5F/uuDua+8AyQVhPrNJWzt1xCwFZS0I2km1RtMRhBeGvbxftl7uZuhjDsL8rX1BNGwQEEnK9B4cXkZBFfowrCJtAFkTEpbgpCOL530ueXTf7IhTyTgrHmyJHkRo9DBREyJDttliqCfShQo+PLFjm1x2LFBHXjRTWtBISBYZs+d1UfMpU44eBggjZ2kNF0uuZiAupSo8Pgng+nt8p8s7CyroxEGteBNmqdltJwV8QQo51dpgoCJtMvdVNbU9PlXIDOwrnKEFeNynWjUP0qeN0qljKbhyX/1w0pQUGCiLE6ffH2uhit23PVDhozA2vbFo3hlav6mS97trNMFCQmrJ14IMgTQtvIRGKTBbNZPXCQkGkTJYRQawWjgzW7Jks683aREHkMMSEICYLJwQg8yN9o4IUL/IwJYjJwiMyvAtoSPpCBeFbn+wIMs4QDIsDQ35LQcSzCitTTqP6AQcLDPktBbHVkDJBxhYekeBdJw6h71OQagGihTM0sHDEHyshxO9TEEtpY6OF7oVn8GMpmO3WkoLoL3kLZxOkN9RBAdZ6gUiHoQgkCDZlrz3E1V1O0CNTCD8gIk1m8lnRRO62tXqjsj41cWPQ3iIVtAtPcK/WFBGdQ757GR8yQffSi8JZePoB4sb9qdTXrLmkWXiGfCzsZ8X2IPXQg3cJkQa09R+rNW/x124n4ZZbloSpXaAQfaytIrltF3W3EJcViXcJGap7bXqq/5sBuy7q9E19V6AH4HyqtEA8N/W9MiQL+aHButeaAVMO94s6aetRLx8qCa0I5wo4GLJv2ImzlaMh1TtXjhDecp/PP6Lh0ThuFzeWI/m5Ebf/quejuZZnB0Jz4Hk/TTnGV25cyFEI7elqQR8/e4Q0RnnRXd3yuwlfGnBffqtTQR7rflPQo/MYZVdAyVqOpuwUUgoh+MNGXNls998p76/uoNluwc70ofYHSjtT0vFcu5y9v3m/gjwWtH9Evn0Ev3AAGHeMznsu7q2HCQIAMyOishAAeHGJmM0DLGDnvTbtS7k3fJ/ATAg5RurMrAYMHwFmp8ct0Uqx4/i9dOiO6VXAPHg6ySf9AWOxUxcVIsBE/HjpONF6RwED2IGZ8TGYV+kelTwsclAQYA589pHozjACBoQCUwvIYIRdrItHjA5ME4GMRRDlKQ8IQYBZUFKA9kxW+VYDnKMDUxOk3UUqNx7CwwLmJkjrTMZyLyRKeYHZCdKWyQqES26AyRH6bxoIlWmoAPD3wVzgSdWmXW5MKW6BAubysbhxEXI9FT9BFAICTCUhsWegOvsqCAgwGRI/to2bqS4NRoSAAHNBuFmKYmlutDhTDiksYDYIl4LQ0Wb4Uprr5amkmNYATBiny3eSxHgZiBXCMXSrMkwXh+jAjHF69U4QuvxLVBkjDAcLWMzJwkWbAGB07S4hgwWsGIZob9wFgNngDBiCAB2YOFDP4AcAnMcQ3GQOgCHgB4A4pCd/Bf8KWACp9/wD+StgCYTYw4+M80EAgQjCDwBgJzHw8gH3ClhLRBR1J4TqEmBFP6uRIkfLIfwrYEWK1KP1crshACziaMnh+tFpiG8JWBjOsw2Endd9AsBsOnJ02cYXvyrm5KEdAPBgifchpHRpTAc3AODT2zr+cdf/AwAAAAAAAAAAAAAAAAAAPOE/WMXnJBy1slMAAAAASUVORK5CYII=;" vertex="1" parent="1">
          <mxGeometry x="630" y="569" width="150.66" height="100" as="geometry" />
        </mxCell>
        <mxCell id="db5u3t6Vqj1OG-nuEc2L-11" value="" style="shape=image;aspect=fixed;image=data:image/png,iVBORw0KGgoAAAANSUhEUgAAAQQAAAEsCAMAAAASKT1jAAAC/VBMVEVHcEwND4kNFokOFooOFYkOFooNE4gNFYoOFosQGJQQF40PFosQF5EQF5AOFYkNFYYOFYkOFosQF5IPFokQGJUOFokOFokQF5MOFIkOFYcPF44OFosNFYcOFYoPFo0NFYgOFosQGJMOFIoQFocOFogOFYgOFYgNFYgMDokOFIkPFooQF48OFYgMFIkOFYgPFowPFIgPFogQGJEPFYkPFowPFIgNHIAOFYkNFYcOFYgNFIgNFYgAAHUPF40PFIoOFIgNFIgNFIgOFIkNFokKF4YOFYgNFogOFooOFogPF4wOFokPFYgOFokOFogPFYkNFYgQGJIOFIkKE4cNFYkPFogNFYgOFogOFokOF4oNFYkNFokOD4kPFIkOFokPFo0OFYkNFYoNFIkKGIYPFYkNFooOFYkPFooOFowOFowOFo0QEIIOFokOE4kMFIkOFowNFIcOEocOFYkWF4oOD4gOFYkOFYkOFosNFYkOFowOE4cAA5gPFYkNFYoNFIkOFYsOFooNFIkNFIgPFokOFYkPF48NFokMFIgOFYgOFYoOFIgPFowNFYkPFYkPFo0OFIkNFYkLE4kPFYsPFowPFY0QF5QPFogOFowPFYgNFIkPFosOFYkVGIkAAGUOFogOFYgPE4wOFowLFYkOFIgOFosPFYkMFIkPFYkNFYkAAIQOFYgNFYkPFo4OFowPFIkOFogOFYkOFIgAAX8PFYkPFIsOFooME4gPFosNFIoPFowOFIkOFYwOFosPFYkNFYsOFIkNFogNFYgPFYsPFogOFIgOFYkOFokPFo4PFosPFo0PF4sMFosPFowQF4wPFo0OFowNFocOFYkNFYoOFYgOEoUOFYgOFokNFIgOFYkOFYsOFowNFYsOFosOFosOFooOFokIE4kOFo0MFIcOFYoMFIgOFYsPFogOFYoRGJQOFYkPFokNFIgOFokOFYcOFYgQGJYPFokOFYkPFYwQGJcRGJkPFo8PFooNEocOFIkPFYkOFo4RGZwRGZkPFYkPFYoQFYrb5lntAAAA/3RSTlMADnbP36xFM9T//////5IGLeb///+ezv90h//yIPT/mZ//Ix7wiW/hD7z//1Ql9f+lYv+k/TwHbDP4X8wB/+kcrjvVWBPneiry/z77tU3GYP/RBWfZfOWDG1FlDD5y5/S+ahKFNt35zuB0C+MZN+0sGO0JDYv2nFuTYQTL4oHIw4xD/LH/oCeVh0f8ePn9yFck+Pv1/7jryn/bwAgE12M99hAu4ZcijtMCukD/8ELW69AD2I3ESfZPfMWy8OiuXaFZpduSgmGmyvn/Fdj/z8FMqc3zQKdwMJ2o45m3u4irF/Ep0jmh/9b/s5BKj7W0//3vuf//2rQ/o3Vg//+5+91iM0XlAAAUj0lEQVR4Ae3dd1wU19rA8YeEwF3mTDDzGFcHAhkLV8/BTCqShJHEoLhXTTagWEizJxDbKpqisRFMJLFfe0jsaGyY3jHV195rejem91s/r/FGZXfOwpaZXXTm+y9lhh/nHM7ZBRbqgZhzzo09Lw4sLf4vjgSBiOcngnU1uEDC44SGF4JlxTRy4gmC1BisqokD/yQnJYM1NbgoBU9ypoI1XazgKSlJTcGKmjVPwdOcLcCK0hSsQf5rS7CgVgRroCwdrKf1JSrWJF0K1nPZ5RRrkmMtOB+ukNALvfIqsJqMWBm9SW3AajKvVtEbsd6icA2h6E28NgsspomCPrS22WAx1xH0QYXrwVqy2jH0Jd0A1pLTXkNfpANYS25Hlz5CKljL3zqp+gidwVq6pFB9hBvBWm5yow67OQ8sJd/BidC1JVhKNwV1tIJssJTukh3BjnDmRujRs1d66zMnQmH8DZfdkgjGuvU2WdRuv6N3HzBGX16E9kZF6Hd+/wGyeOXAW8BIaU5GKVWJ+867isAIHRROhOK7wQiDzhugyAKlgnPwEDDO0GEM/0d2Duxi2j6hnQfCN3xEiaLi/zQcCcYZJVI8icj3GHCv97pRR2x0nwEz4X6HC0+SRxeCYcYQPE1wPjDEnLPDWAhb+mAJT1Ovbg2GGSdhTdJt4yFMV03gnCInQrgaX1mKNQidBoFhHlTQi3hROoSnrLmmjzAJwvSQ6J1WoA+DYUZI6E2enA9hKRot6yOUQ3hSFQG9qI/Eg2HKRYretEd7QVimiOhLmgphGalQ9KZeMg0MM1Wm6CNhek8IxxUEfdAZYU3grJFOqt+DFoJhGnQS0Jc8Mw7CUO4w+HmHSbM4P2/+DsbxtGOow2bHQ+jSdYNLnJMFoZtLBNRRuoGBUiXUk+ZlQ8jKbnehNzISQneZrKKOYOzTOemMop5z/gII1cLHZN+mFRCyx59IQD256wIw0KLRMnIoqcYNLrVkMYQqe4mIHMokMNRSJ3IIYgWEpPDuZcvd6IWtgFBVruTfnboKDPX4ZAE5nly9GIJRWLZm1NzUzlPWFq97xPeWk1ZO6r2mdSgDeIwbecT194GhqqYQ5JGmZEBg7v5bxaT5G5rL5DiRyRpFHwIhJGFYu85NRvVrCcFYNVlFHukcMFgFocijjIG65U596uliQSKEuSjWhmqMEGnCvL/PfaZHwKNrBUGelObZYLCWsQx51GcHQa2GPjduShKRRJlioASZuFnB/OfXxEAAxjmRS0kFw5U7kUt6IQ/8Kuv9YgFziyoGjWqiW+1/xahsqMNVM1TkUacvBsP1WSIjD5XaAF/rNitfkohGMVRUJuTlV16ttUPVCwS5nK+BCc5xIpfctgfoLap+ZZibqBgujZC2G7sUgT/5l1PzBoLeoteZn+ZvgK/4cbEicaExNEne8GYucPUZzZBLeQNM8RbhR3fNbAA1Lezy4rOKTNE4lDmT3o4DjjEScrGXh4Ipql6QAph+MfnvyJKKRlOlhPnVC8BHj2Eav5qUDya5ftP/IY/riVPzb3P5PCJSNINAxHMrhoOXvv5+ZN1RBWZZ7qx9KOSU93eXUjQLFcUtaTVHw+YCGXm2PhEPpmm5liCP66LWAJDYa4tbRlNRRra9CqekuZFL6QYmGr/JhTzOFgDPPUAYmo6KZPvJJTJxLUMe940ZYKa5ToocCaN3nCcTipFAiWvnYvjDc4wih7x6CJgqj390RyqIAgaOCqpL0zSZMSZrmuZShWACCsrq7n0A4Do3cgjivWAm/w/iYIAJqKoxojgYvbrjsILi4l03TulfXLCueQllDoUwTQ2whaZsGQWbd6vI4UgF0+2ZqWFIqCoTh3xJwZy9TfaNius3LdvjWVAJWRkez+Zl++Oq01rsvLaghDmIHFAJJl53gHsjzimFYL6KUgGDpjKJ7O5/sDx98fAs8CcrJrN67nn9S4jE1ABWSBk5xENNI/RLVzTIUzGRLrp56atDEiEQGftvOryiRAnt+CnPXAWRccBBgzn+iO0n5jfIgmBUZaZ1bkskDYOU4qqGCMnYG2gFlZCXr5g6FEKRXX1wnUQEDIIqpkHEeFbOwgDI7mePVPSA0CXnvztdkQMfB2wfRNCiVg5a99Yu9r14CFe/caMDPZFpLA0iKub9R2mtCYj2QkUfMMIHvefIgcwKeVNviLCqx56sLYH87o4sMMrCnnck1LknJ0npEGkjNtFaE4Cx4o6w2ieFe971EGnLJcH/Xm7sDjBez6cJQ7/kFz+oRw1U97yKRDBDYq/+ThX9EC+MfANFQC4qJXXPAbPkPPQhochFxVc89WQcyORIJpgp/giRkYvO6uyJaAOn4GcYtG2TBeaqzL9NoshDnZ2LIGKe8jMONPeLH4H5Wr9yueavQmK054K4+tZKiIi01YRfQXntPoiIDm6B/234+BOIlMxdTsqvkAqR0FhU+afFTxdB5MSMFFP4q1J3MN81CdyLs00dILL2bWL8s3RvMNuOAdwGpG0XiLSHDxHkSJn8HJgrczY3v/Pj/RB5uR87kYPNNvdmPthAPuOtRq16QDR88K5CUU/6PAfMk9hZQT3qfqUIosOz9wsB9ZQv7wPTjOA2UC6sgmjJO3y5wLulMWCW9BSB2yALougob9eizvgKzJF8AeM1OFAJUXWMt38Vi5uBGbK+dvL2JiOzIMqOuinqOL8x5b7eUmSXN1XQvt2ZBdFWeYVDE1SXN+3bDmC8ojkfNvdx9XerPy2E6Eu8+MPvLvm+ubcPCz4Cw2W0brrMR/yqplA/lK1qkLzMW9NpHrDZbDabzWaz2Ww2m81ms9lsNpvNFkmVC6u8VAJPlbeF4EfWqU+TV6TjqarUXyDwm+CrPHGtKgiJZ+HxD19YCUcH3l/TrheWgV7cwF3317TtJtDr8OJ1E6dc++d7TPm4vU7xrjnHL8D7565Lt91f08DrYiBAzebvun9Ku/aNHsqGoD3zQ3GjOcevdhRaNWQ1SUID0BuliKymH4+B3gs/EcJOkTU9dpz47XjwVTnnW1bTFwU5EKCmndx/XIs5ft4DQeo92ZnAjmvYCn5hPv/9LBf0bkigWBNpAXorCQaAsl/BV5HPP6KTX+8DAdpfIuAJ5MMuEJS5cgqewH6pFxEKu4YcYdV3Av5P6aabIHBZI4iKZ0uEWyYI+Cf50cYQqLwDioDhRnivHkbAFPYmBGb4iwrFsCOMqI8RUJCOQSB63KFQDDuC8lu9jICCsjED6vTReieiAREO1s8ISJXOi6AOmf0lNCTC3noaAVF5OrmOj5gt4tkeAZ1/GQK16Lma4dkfAaXiT8Cv/CcYRjSCwKMqa8BX0QYjI6C4+mHwo1zWMLIRJnSaoNdptf77FBNraARkM0cBVwuiYkQjUJrfj6csA3x9cLtqaASUN+0DvaoDkoCRjSDQeAjQB7sNjoAa6w6+PK84KUY8wt+iFwEFael94GWo1zbREhGQOg4WQg3L3lEQrRYBqfPdHDhl8Tw3WiCCnnJ/8ql3u4CgNSOge14mnNDzJRGDiXBJMuj1PDMjoHQoDo6rmM4wmAjCIz2X9cnJ2eyBkzybcxalnaERUExKB/hdTsBAItRQsu6vo0cXd11xUtfi0X/tSDGECIujHwHZhPwWoorBRhA0+Th2mizLAmIIO8YmN+n845YIR0BVZhQDjBC4wM8ORNH558RIR0BKMZoROMgVpkfQs3AEO4IdwY5A64yinvUR6O6SUqwVG/bZ2R6BNfrqToL+UeVAz630bI/QDsq2SOiP4H4Q4sWzPsJaD2RPkZBPJeMA9jArRICcXxwUOVLEcgD41RoRoOhTh4A68uR8iHgEF9P58f2IRIDKcZKKPsSZ1RBoBMGl+nIJoUSgbbvq/DwuMhE4zzWR2c9AwBFKOu721bEkhAiUVQBfRCJA/gDm1eDOTAg0ApUvy23gK/ecrTT4COpXUY0A6atFPEX5uAwCj8AGGfYY41XRjQC/HpJObZG2N4NgIvxq2KPNv0Y5AgzZ4j75/zoXQZQifBLtCNDsRidFFKQrEiFKETo1jXoE6NNZoYJyDCBqEZKjHwE8v30rdoMzMkLX+4yKAJXjGkMUI0z4KNQI6rDyay7Tq7hsaMAR9M60nw5IRR6JrDnzImSGHIFPoLecaRGoMPf6QZ/oXRVjZIRf63cERBm/42C/Ghnhqk71PAIKHCrZY2SEso6ueh6Bhxo7EpraEQCmnT0RblfRjtDcjgDDX5ftCIUbZLQjdD0jI+wEO4I79SyPsCeACKRJfYmwqK1mQISx/1JOcyvf/msN6L36o0Op6Z9vgN6cfzoC0PCfceBr+Mv/UgLQ0KG/N0/Jj0pN/yoogjrE/dPhrvkl/3M+9Hz+6Gnnv9l4Xw7o5R71dk8X0Eu/q3Eg7soGXwt/PxqYpuAr782j3srzoA7Zd7U4v8aX3OSuLhAlNpvNZrPZbDabzWaz2Ww2m81ms9lstry8+3TyoD7g3FiiSXc2ZksjnZu350O07Th487mNfP3cBEyR+axDZr4kZxOIrnKmMF+y49lPwBzVTEAdlUS3wjGioo4gvmXeBZ2oJ+grRPul5lFJBdNkzFe4Fc7PgujI2KjwGjineMA8zWJFXgVlYxFEw+bObop64qGmYKarPpRRjzp+yIbI+2igk9cgZcbDYK5qWUUOZ7tMiLS4JQQ5BJYPZuvGrY9kdjpEVpuZInJQZ18w3/kOboXSlO5VEDmew6LGbaA8mAXmy9srcSuo0i/JECn731Eo8ji/yYBISFzpRB4qjU6HyOg1W0IuZX4RREbLOxTkYvI9LcF8Qz8VZeRSHvgAIiXGXwXB+ZcuYLYbYp3U+AYGVkAx5fDdYKZmF8sM/TUYCpEU00qh/gbDkt6JYJbEtAucNEoN9FoekSjyMXFsHJgjbiyR0Q/2ZR+INM9Bp4B8lFx5cD8Yb8jGKwlFf9hviRBx9x3bRNEPQXr24lww1rJ7ktwC1sK9PRkib0op+qUqSYczwTi5T81WVKydMi8TIqxynNdI0HG5n934Kxhj0MgkRcM6kdnjIaLyflMErJ0gCa1uyoFwLbrhyAy3ioEQX0qPaINLHRTrJBAyevn1EI5+78WKRMAAsRnVEDmTGlIMBJXdk98pXwyh2V/+9ABFphg4ecAzECktJIqBEkT3RXO6rfFAcDyrOjz9rCIKGJzSwXsgMtKCvDeVKULspb0+WRBogH75v71OFVHF2vEfYWwAkdDzyhQMliATaUDsxLlT9w+HWmTFZFaPmRg7XSJynZ0pS0C9z8jnm8F8i2czDIkgiw5WUjzliu5tpq7Zn7zIk5F1AuR5hicvXnNDm/f2zikoYQ5RH4BDliY+yJBD+XsimG3Rx1LAY1OPqjIjiiJjyfcvF/efcsKNG4oLvi/BUkUhTFNpYEGVtm1gWYnKfZhxHJjtN6efwckoBowKqkvT5NOvwOxShWA+nKQcLAOAfxP+iEsHc+XzF0W1bZsXiIyRIZMHdsAfriHccnLb1mCmIS8lII+UColpSxQNzacpd7bJgxMKYxnyKCurwDxV8yXkEWbEA0D2ey85XWYncA576G44aYyfuem+Fcxzq5sij3QdnJA7qaOUYmaCWUlHaw715OYa8iS8VAZmaepnMlB5DcCpDIpm2ij4fmkD8DJJQS7nl2CWnU7kklbCabkt2kuMotEok15e3hp8TEviF6csHczxjEb9rAifQE09br25VFLRSC6J3fx7D9DxOxTEtYVghrz7CXI5d4KPxJ7nJSlMQGMITPrwlecygKfpMA25pN/BDBWEIo92US7o5XZoJLgZNaCA8n/ndssFf7opyCW3/wCMV9iVIZfSBLiqVh3rqrmZEFYBt/rYU2sqwb+Yx0TkUrqD8fIJcokbYsAfz/j3zv3jSEgxeFQm7gG7RqxZALV7TuZnfnKd8UMhYz2/uFDaBWpTGd/my1jNTYIaEQIjbted3+zrlwV126sgl3QOGG2qn/ntvBDq1Gf8OV9ueIQQwly0zmMmI0R6ZMM35Ws2Q2B6XFCKPOx1DxjsDoI84rwcCEhh/KgWK9t9L5PjRFnjHBopOS6h4+f/HjcqvhCCUF0qcHuK1WCsq2bwT4+T4yAIntarbnrztVbnxq672qWhN2H3/J0PvbXqoyIIWuos/3s4I6U6ubGdcyEE9+U03f/40svRi/gxhCqmkfQZ6gkD9oOR+hTIyDFrYhaEarlPVrVjGYRq/0sycihvgpG6cJdF6ePNEKqqFQy9kakQsqmyinqsXSIYaKmEemx2GMOt7HaXb4RxELpukoA6gnALGCfxWhF15JlxELr0UorexLHhLVoUdZS5YJxkzv8V1h4dBWEY49BFje0Doct636GvQL4B43wlU32DfAjHQaJfzOMhDJ6J+gry6wvAMPtEanADOJehL9IFwqugUPTm2p0Nhhkh+SZOCLPBovayPsI+AGPHgnr1YjDMgwp6YTMrIDxlHTV9hPMhPAsuVgTvCCVDwDC/eUcgs3dAmFb9R9BHuA7C9ZSY4h2hARimBcHTqGPLIAjXc09y1vKxELY204nXdCgDw4yqsTDK0i/ZELZ73ajD1idC2MZ/XGNKyKMLwTA9OiacXG+V2fvAAL0aoo68YTiEL+ee707tHh2XgoG6f+tCRCrPumjkR2CExgrqaAXZYIRVR1ySiyKiOON6MNCCpTOUhg5tyfLFYIy+koERdB5+//sUR0PHbdVgrEGNny//qo9xQ8vYCDo9nit/Pi0ZIs+ICBZgR7Aj+BpjRwDo7UAduWtLsJQKhbdjzANL6ck/O1jLqgmcU+RKsJYGt6v6CA+CteS01/QRWoC1ZLVj6EvqDRbzi4i+2MNgMeMU9KF2/AgspsKNPthjHrCYQQME9EbOA6sZXiDrf/PQcjoT9EInPw6WU66gF7n/cLCcfj4bZ+kAWE/VeoY1ULELWIz+t5KZFWcDwLTbU/A0aS5YjP65bm1YNlhSgwEqnuQ8Cha11IF/koclg0Vt/i/BE+gX3cCybpkpnmjQ8N8LwLpeXS0hao7OOWBlH23stPXztyB6/h97WLXpDi6p1wAAAABJRU5ErkJggg==;" vertex="1" parent="1">
          <mxGeometry x="662" y="706" width="86.67" height="100" as="geometry" />
        </mxCell>
      </root>
    </mxGraphModel>
  </diagram>
</mxfile>
